<svg xmlns="http://www.w3.org/2000/svg" viewBox="0 0 24 24" fill="none" stroke-linecap="round" stroke-linejoin="round">
  <path d="M12.5 5.2c0-1.45 2.05-2.6 4.6-2.6s4.6 1.15 4.6 2.6v12.6c0 1.45-2.05 2.6-4.6 2.6-1.2 0-2.3-.26-3.12-.7" fill="#dbeafe" stroke="#2563eb" stroke-width="1.5"/>
  <ellipse cx="17.1" cy="5.2" rx="4.6" ry="2.6" fill="#60a5fa" stroke="#2563eb" stroke-width="1.5"/>
  <path d="M21.7 9.35c0 1.45-2.05 2.6-4.6 2.6-.92 0-1.78-.15-2.5-.42M21.7 13.65c0 1.45-2.05 2.6-4.6 2.6-.64 0-1.25-.08-1.8-.22" stroke="#2563eb" stroke-width="1.25"/>
  <path d="M3 4.1h6.15l3.05 3.05v11.7A1.55 1.55 0 0 1 10.65 20.4h-7.1A1.55 1.55 0 0 1 2 18.85V5.65A1.55 1.55 0 0 1 3.55 4.1Z" fill="#ecfdf5" stroke="#059669" stroke-width="1.5"/>
  <path d="M9.15 4.1v3.05h3.05M4.45 10h5.25M4.45 12.8h5.25M4.45 15.6h3.1" stroke="#059669" stroke-width="1.2"/>
  <path d="M9 17.7h5.2m-1.8-1.8 1.8 1.8-1.8 1.8" stroke="#f97316" stroke-width="1.8"/>
</svg>
